<svg width="96" height="112" viewBox="0 0 96 112" fill="none" xmlns="http://www.w3.org/2000/svg" role="img" aria-labelledby="title">
  <title id="title">Escudo ProspectaNicho</title>
  <path d="M48 4L86 18V48C86 75.5 69.6 96.6 48 106C26.4 96.6 10 75.5 10 48V18L48 4Z" fill="#061E3A"/>
  <path d="M48 4L86 18V48C86 75.5 69.6 96.6 48 106V4Z" fill="#0FA3A6"/>
  <path d="M48 17L74 26.7V48.5C74 68.5 63.7 84 48 92.1C32.3 84 22 68.5 22 48.5V26.7L48 17Z" stroke="white" stroke-opacity=".9" stroke-width="4"/>
  <circle cx="48" cy="48" r="16" stroke="white" stroke-width="4"/>
  <circle cx="48" cy="48" r="6" fill="white"/>
  <path d="M48 31V21M48 75V65M31 48H21M75 48H65" stroke="white" stroke-width="4" stroke-linecap="round"/>
  <path d="M59 70V58M68 70V50M77 70V42" stroke="white" stroke-width="5" stroke-linecap="round"/>
</svg>
