<?xml version="1.0" encoding="UTF-8"?>
<!DOCTYPE svg PUBLIC "-//W3C//DTD SVG 1.1//EN" "http://www.w3.org/Graphics/SVG/1.1/DTD/svg11.dtd">
<!-- Creator: CorelDRAW -->
<svg xmlns="http://www.w3.org/2000/svg" xml:space="preserve" width="25.43mm" height="25.43mm" version="1.1" style="shape-rendering:geometricPrecision; text-rendering:geometricPrecision; image-rendering:optimizeQuality; fill-rule:evenodd; clip-rule:evenodd"
viewBox="0 0 122.35 122.35"
 xmlns:xlink="http://www.w3.org/1999/xlink"
 xmlns:xodm="http://www.corel.com/coreldraw/odm/2003">
 <defs>
  <style type="text/css">
   <![CDATA[
    .fil1 {fill:none}
    .fil0 {fill:#FED15D}
   ]]>
  </style>
 </defs>
 <g id="Camada_x0020_1">
  <metadata id="CorelCorpID_0Corel-Layer"/>
  <g id="_2407074943360">
   <path class="fil0" d="M61.17 42.78c-10.16,0 -18.39,8.23 -18.39,18.39 0,10.16 8.23,18.39 18.39,18.39 10.16,0 18.39,-8.23 18.39,-18.39 0,-10.16 -8.23,-18.39 -18.39,-18.39zm-9.2 18.39c0,-5.08 4.12,-9.2 9.2,-9.2 5.08,0 9.2,4.12 9.2,9.2 0,5.08 -4.12,9.2 -9.2,9.2 -5.08,0 -9.2,-4.12 -9.2,-9.2z"/>
   <path class="fil0" d="M61.17 42.78c-10.16,0 -18.39,8.23 -18.39,18.39 0,10.16 8.23,18.39 18.39,18.39 10.16,0 18.39,-8.23 18.39,-18.39 0,-10.16 -8.23,-18.39 -18.39,-18.39zm-9.2 18.39c0,-5.08 4.12,-9.2 9.2,-9.2 5.08,0 9.2,4.12 9.2,9.2 0,5.08 -4.12,9.2 -9.2,9.2 -5.08,0 -9.2,-4.12 -9.2,-9.2z"/>
   <path class="fil0" d="M55.51 10.67c1.04,-0.08 2.2,-0.08 3.15,-0.08l5.04 0c0.95,-0 2.11,-0 3.15,0.08 1.22,0.09 2.92,0.33 4.74,1.16 2.3,1.05 4.27,2.7 5.69,4.79 1.13,1.65 1.65,3.28 1.95,4.47 0.25,1.01 0.45,2.15 0.61,3.09l0.65 3.77 0.01 0.01c0.16,0.09 0.32,0.18 0.48,0.27l0.01 0.01 4.31 -1.56c0.87,-0.32 1.95,-0.71 2.93,-0.98 1.17,-0.32 2.81,-0.67 4.77,-0.53 2.48,0.18 4.87,1.03 6.91,2.46 1.61,1.13 2.66,2.44 3.36,3.43 0.59,0.84 1.18,1.82 1.65,2.62l2.31 3.86c0.51,0.84 1.12,1.87 1.6,2.83 0.56,1.13 1.24,2.76 1.45,4.81 0.26,2.58 -0.21,5.19 -1.37,7.51 -0.92,1.85 -2.13,3.13 -3.05,3.99 -0.78,0.73 -1.72,1.47 -2.49,2.08l-3.11 2.42 3.11 2.42c0.77,0.61 1.71,1.36 2.49,2.09 0.92,0.86 2.13,2.14 3.05,3.99 1.15,2.32 1.63,4.93 1.37,7.51 -0.21,2.05 -0.89,3.68 -1.45,4.81 -0.48,0.96 -1.09,1.99 -1.59,2.83l-2.31 3.86c-0.48,0.8 -1.06,1.78 -1.65,2.61 -0.7,0.99 -1.75,2.3 -3.36,3.43 -2.04,1.43 -4.42,2.28 -6.91,2.46 -1.96,0.14 -3.61,-0.2 -4.77,-0.53 -0.99,-0.27 -2.06,-0.66 -2.93,-0.98l-4.31 -1.56 -0.01 0.01c-0.16,0.09 -0.32,0.18 -0.48,0.27l-0.01 0.01 -0.65 3.77c-0.16,0.93 -0.36,2.08 -0.61,3.09 -0.3,1.19 -0.82,2.82 -1.95,4.47 -1.42,2.09 -3.39,3.75 -5.69,4.79 -1.82,0.83 -3.52,1.07 -4.74,1.16 -1.04,0.08 -2.2,0.08 -3.15,0.08l-5.04 0c-0.95,0 -2.11,0 -3.15,-0.08 -1.22,-0.09 -2.92,-0.33 -4.74,-1.16 -2.3,-1.05 -4.27,-2.7 -5.69,-4.79 -1.13,-1.65 -1.65,-3.28 -1.95,-4.47 -0.25,-1.01 -0.45,-2.15 -0.61,-3.09l-0.65 -3.77 -0.01 -0.01c-0.16,-0.09 -0.32,-0.18 -0.48,-0.27l-0.01 -0.01 -4.31 1.56c-0.87,0.32 -1.95,0.71 -2.93,0.98 -1.17,0.32 -2.81,0.67 -4.77,0.53 -2.48,-0.18 -4.87,-1.03 -6.91,-2.46 -1.61,-1.13 -2.66,-2.44 -3.36,-3.43 -0.59,-0.84 -1.18,-1.82 -1.65,-2.61l-2.31 -3.86c-0.5,-0.84 -1.12,-1.87 -1.59,-2.83 -0.56,-1.13 -1.24,-2.76 -1.45,-4.81 -0.26,-2.58 0.21,-5.19 1.37,-7.51 0.92,-1.85 2.13,-3.13 3.05,-3.99 0.78,-0.73 1.72,-1.47 2.49,-2.09l3.01 -2.39 0 -0.05 -3.01 -2.39c-0.77,-0.61 -1.71,-1.36 -2.49,-2.08 -0.92,-0.86 -2.13,-2.14 -3.05,-3.99 -1.15,-2.32 -1.63,-4.93 -1.37,-7.51 0.21,-2.05 0.89,-3.68 1.45,-4.81 0.47,-0.96 1.09,-1.99 1.59,-2.83l2.31 -3.86c0.48,-0.8 1.06,-1.78 1.65,-2.62 0.7,-0.99 1.75,-2.3 3.36,-3.43 2.04,-1.43 4.42,-2.28 6.91,-2.46 1.96,-0.14 3.61,0.2 4.77,0.53 0.99,0.27 2.06,0.66 2.93,0.98l4.31 1.56 0.01 -0.01c0.16,-0.09 0.32,-0.18 0.48,-0.27l0.01 -0.01 0.65 -3.77c0.16,-0.93 0.36,-2.08 0.61,-3.09 0.3,-1.19 0.82,-2.82 1.95,-4.47 1.42,-2.09 3.39,-3.75 5.69,-4.79 1.82,-0.83 3.52,-1.07 4.74,-1.16zm15.3 15.26c-0.38,-2.21 -0.57,-3.31 -1.13,-4.13 -0.47,-0.7 -1.13,-1.25 -1.9,-1.6 -0.91,-0.41 -2.03,-0.41 -4.27,-0.41l-4.67 0c-2.24,0 -3.36,0 -4.27,0.41 -0.77,0.35 -1.42,0.9 -1.9,1.6 -0.56,0.82 -0.75,1.93 -1.13,4.13l-0.72 4.16c-0.26,1.48 -0.38,2.23 -0.66,2.8 -0.27,0.56 -0.48,0.87 -0.93,1.3 -0.45,0.44 -1.28,0.9 -2.95,1.82 -0.12,0.07 -0.25,0.14 -0.37,0.21 -1.59,0.91 -2.39,1.36 -2.98,1.52 -0.58,0.15 -0.94,0.18 -1.54,0.13 -0.61,-0.05 -1.29,-0.3 -2.66,-0.79l-4.66 -1.69c-2.07,-0.75 -3.1,-1.12 -4.08,-1.05 -0.83,0.06 -1.62,0.34 -2.3,0.82 -0.8,0.56 -1.37,1.51 -2.49,3.39l-2.11 3.53c-1.19,1.99 -1.78,2.99 -1.89,4.01 -0.09,0.86 0.07,1.73 0.46,2.5 0.46,0.92 1.36,1.64 3.18,3.08l3.33 2.65c1.16,0.92 1.74,1.38 2.1,1.87 0.39,0.53 0.56,0.88 0.73,1.52 0.16,0.59 0.16,1.54 0.16,3.45 0,1.9 0,2.86 -0.16,3.45 -0.17,0.64 -0.34,0.99 -0.73,1.52 -0.36,0.49 -0.94,0.95 -2.1,1.87l-3.33 2.65c-1.82,1.44 -2.72,2.17 -3.18,3.08 -0.38,0.78 -0.54,1.64 -0.46,2.5 0.1,1.02 0.7,2.01 1.89,4.01l2.11 3.53c1.13,1.89 1.69,2.83 2.49,3.39 0.68,0.48 1.47,0.76 2.3,0.82 0.98,0.07 2.01,-0.3 4.08,-1.05l4.66 -1.69c1.36,-0.49 2.05,-0.74 2.66,-0.79 0.6,-0.05 0.96,-0.02 1.54,0.13 0.59,0.15 1.39,0.61 2.98,1.52 0.12,0.07 0.24,0.14 0.37,0.21 1.66,0.92 2.5,1.38 2.95,1.82 0.44,0.43 0.66,0.74 0.93,1.3 0.27,0.57 0.4,1.31 0.66,2.8l0.72 4.16c0.38,2.21 0.57,3.31 1.13,4.13 0.47,0.7 1.13,1.25 1.9,1.6 0.91,0.41 2.03,0.41 4.27,0.41l4.67 0c2.24,0 3.36,0 4.27,-0.41 0.77,-0.35 1.42,-0.9 1.9,-1.6 0.56,-0.82 0.75,-1.93 1.13,-4.13l0.72 -4.16c0.26,-1.48 0.38,-2.23 0.65,-2.8 0.27,-0.56 0.48,-0.87 0.93,-1.3 0.45,-0.44 1.28,-0.9 2.95,-1.82 0.12,-0.07 0.24,-0.14 0.37,-0.21 1.59,-0.91 2.39,-1.36 2.98,-1.52 0.58,-0.15 0.94,-0.18 1.54,-0.13 0.61,0.05 1.29,0.3 2.65,0.79l4.66 1.69c2.07,0.75 3.1,1.12 4.08,1.05 0.83,-0.06 1.62,-0.34 2.3,-0.82 0.8,-0.56 1.37,-1.51 2.49,-3.39l2.11 -3.53c1.19,-1.99 1.78,-2.99 1.89,-4.01 0.09,-0.86 -0.07,-1.73 -0.46,-2.5 -0.46,-0.92 -1.36,-1.64 -3.18,-3.08l-3.33 -2.65c-1.16,-0.92 -1.74,-1.38 -2.1,-1.87 -0.39,-0.53 -0.56,-0.88 -0.73,-1.52 -0.16,-0.59 -0.16,-1.54 -0.16,-3.45 0,-1.9 0,-2.86 0.16,-3.45 0.17,-0.64 0.34,-0.99 0.73,-1.52 0.36,-0.49 0.94,-0.95 2.1,-1.87l3.33 -2.65c1.82,-1.44 2.72,-2.17 3.18,-3.08 0.38,-0.78 0.54,-1.64 0.46,-2.5 -0.1,-1.02 -0.7,-2.01 -1.89,-4.01l-2.11 -3.53c-1.13,-1.89 -1.69,-2.83 -2.49,-3.39 -0.68,-0.48 -1.47,-0.76 -2.3,-0.82 -0.98,-0.07 -2.01,0.3 -4.08,1.05l-4.66 1.69c-1.36,0.49 -2.05,0.74 -2.66,0.79 -0.6,0.05 -0.96,0.02 -1.54,-0.13 -0.59,-0.15 -1.39,-0.61 -2.98,-1.52 -0.12,-0.07 -0.24,-0.14 -0.37,-0.21 -1.66,-0.92 -2.5,-1.38 -2.95,-1.82 -0.44,-0.44 -0.66,-0.74 -0.93,-1.3 -0.27,-0.57 -0.4,-1.31 -0.65,-2.8l-0.72 -4.16z"/>
  </g>
  <rect class="fil1" width="122.35" height="122.35"/>
 </g>
</svg>
