<?xml version="1.0" encoding="UTF-8"?>
<!DOCTYPE svg PUBLIC "-//W3C//DTD SVG 1.1//EN" "http://www.w3.org/Graphics/SVG/1.1/DTD/svg11.dtd">
<!-- Creator: CorelDRAW -->
<svg xmlns="http://www.w3.org/2000/svg" xml:space="preserve" width="25.43mm" height="25.43mm" version="1.1" style="shape-rendering:geometricPrecision; text-rendering:geometricPrecision; image-rendering:optimizeQuality; fill-rule:evenodd; clip-rule:evenodd"
viewBox="0 0 136.29 136.29"
 xmlns:xlink="http://www.w3.org/1999/xlink"
 xmlns:xodm="http://www.corel.com/coreldraw/odm/2003">
 <defs>
  <style type="text/css">
   <![CDATA[
    .fil1 {fill:none}
    .fil0 {fill:#FED15D;fill-rule:nonzero}
   ]]>
  </style>
 </defs>
 <g id="Camada_x0020_1">
  <metadata id="CorelCorpID_0Corel-Layer"/>
  <g id="_2407076783264">
   <g>
    <path class="fil0" d="M102.81 21.02l-13.27 13.27 1.23 1.28c-0.88,0.71 -1.77,1.4 -2.63,2.02 -1.39,1 -2.73,1.79 -3.64,2.17 -0.06,0.03 -0.31,0.1 -0.79,0.09 -0.78,0.01 -2.09,-0.19 -3.69,-0.44 -1.61,-0.24 -3.53,-0.51 -5.7,-0.51 -1.89,-0.01 -3.98,0.22 -6.18,0.83 -2.19,-0.6 -4.28,-0.83 -6.16,-0.82 -2.17,0 -4.1,0.26 -5.7,0.51 -1.6,0.24 -2.91,0.44 -3.69,0.43 -0.49,0 -0.74,-0.07 -0.79,-0.09 -0.97,-0.4 -2.43,-1.28 -3.93,-2.37 -0.78,-0.56 -1.57,-1.18 -2.35,-1.82l1.23 -1.28 -13.27 -13.27 -33.48 34.68 13.27 13.27 3.89 -4.02 8.58 7.48c0.24,1.44 0.69,2.79 1.21,4.08 0.34,0.82 0.71,1.61 1.09,2.35 -0.83,1.37 -1.28,2.94 -1.28,4.53 -0,1.58 0.43,3.19 1.32,4.62 1.35,2.18 3.52,3.54 5.86,3.98 0.01,1.55 0.44,3.13 1.31,4.53 1.66,2.66 4.52,4.14 7.44,4.13 0.11,0 0.23,-0.02 0.34,-0.02 0.15,1.24 0.55,2.47 1.25,3.59 1.66,2.66 4.52,4.14 7.44,4.13 0.29,0 0.58,-0.03 0.87,-0.06 0.14,1.11 0.51,2.23 1.13,3.23 1.51,2.42 4.12,3.77 6.77,3.76 1.43,0 2.9,-0.39 4.2,-1.2l3.98 -2.48c0.78,0.51 1.61,0.95 2.47,1.32 1.61,0.68 3.35,1.09 5.15,1.09 1.98,0.01 4.08,-0.53 5.88,-1.8 1.17,-0.82 2.17,-1.94 2.98,-3.26 0.13,0 0.23,0.03 0.36,0.03 0.82,0 1.73,-0.12 2.63,-0.4 0.9,-0.27 1.8,-0.69 2.76,-1.23 2.28,-1.29 3.65,-3.18 4.31,-4.8 0.15,-0.35 0.25,-0.69 0.35,-1.01 0.55,-0.18 1.08,-0.39 1.56,-0.67 1.76,-1.02 2.91,-2.56 3.62,-4.11 0.71,-1.57 1.02,-3.19 1.03,-4.75 0,-0.15 -0.02,-0.3 -0.03,-0.46 1.15,-0.47 2.19,-1.13 3.07,-1.9 0.91,-0.79 1.66,-1.71 2.23,-2.77 0.56,-1.05 0.94,-2.25 0.94,-3.56 0,-0.85 -0.17,-1.76 -0.56,-2.6 -0.12,-0.27 -0.3,-0.52 -0.46,-0.76 0.67,-1.21 1.36,-2.57 1.92,-4.03 0.42,-1.11 0.78,-2.27 0.98,-3.5l8.94 -7.8 4.19 4.34 13.27 -13.27 -33.48 -34.68zm-65.88 64.28l-0.15 0.1c-0.4,0.25 -0.82,0.36 -1.25,0.36 -0.8,-0 -1.57,-0.4 -2.03,-1.13 -0.25,-0.4 -0.36,-0.82 -0.36,-1.25 0,-0.81 0.39,-1.57 1.12,-2.03l5.26 -3.27c0.4,-0.25 0.82,-0.36 1.25,-0.36 0.81,0.01 1.57,0.39 2.03,1.13l2.71 -1.68 -2.71 1.68c0.25,0.4 0.36,0.82 0.36,1.25 -0,0.56 -0.21,1.1 -0.57,1.53l-4.52 2.81c-0.41,0.26 -0.79,0.55 -1.14,0.86zm7.02 8.6c-0.4,0.25 -0.82,0.36 -1.25,0.36 -0.81,-0 -1.58,-0.39 -2.03,-1.12 -0.25,-0.4 -0.36,-0.82 -0.36,-1.25 0,-0.56 0.2,-1.1 0.56,-1.52l4.52 -2.81c0.41,-0.25 0.78,-0.55 1.13,-0.86l0.16 -0.1c0.4,-0.25 0.82,-0.36 1.25,-0.36 0.81,0 1.57,0.39 2.03,1.13 0.25,0.4 0.36,0.82 0.36,1.25 -0,0.8 -0.39,1.57 -1.13,2.03l-5.25 3.26zm14.28 4.44l-5.25 3.26c-0.4,0.25 -0.82,0.36 -1.25,0.36 -0.8,-0 -1.57,-0.39 -2.03,-1.12 -0.25,-0.4 -0.36,-0.82 -0.36,-1.25 0.01,-0.81 0.39,-1.57 1.12,-2.03l5.26 -3.27c0.4,-0.25 0.82,-0.36 1.25,-0.36 0.81,0 1.57,0.39 2.03,1.12 0.25,0.4 0.36,0.82 0.36,1.25 -0,0.8 -0.39,1.57 -1.13,2.03zm8.14 5.32c0.17,0.27 0.24,0.54 0.24,0.83 -0,0.54 -0.26,1.05 -0.76,1.36l-4.51 2.8c-0.27,0.17 -0.55,0.24 -0.84,0.24 -0.54,-0 -1.05,-0.26 -1.36,-0.75 -0.17,-0.27 -0.24,-0.55 -0.24,-0.84 0.01,-0.54 0.26,-1.05 0.75,-1.36l0 0 4.51 -2.81c0.28,-0.17 0.55,-0.24 0.84,-0.24 0.54,0 1.05,0.26 1.36,0.75l2.71 -1.68 -2.71 1.68zm35.06 -19.79c-0.23,0.45 -0.76,1.03 -1.43,1.44 -0.67,0.41 -1.45,0.66 -2.19,0.65 -0.26,0 -0.52,0.05 -0.77,0.11 -0.45,-0.1 -0.91,-0.24 -1.36,-0.42 -1.39,-0.54 -2.68,-1.42 -3.6,-2.16 -0.46,-0.37 -0.82,-0.7 -1.06,-0.94l-0.27 -0.27 -0.06 -0.06 -0.01 -0.01 -0 0c-0.89,-0.97 -2.4,-1.03 -3.37,-0.14 -0.97,0.89 -1.04,2.4 -0.14,3.38 0.08,0.08 1.28,1.39 3.25,2.74 0.99,0.68 2.17,1.36 3.52,1.9 0.31,0.12 0.64,0.24 0.98,0.34 0.09,0.21 0.21,0.41 0.35,0.6l-0.01 0c0.02,0.01 0.15,0.42 0.14,0.95 0.02,0.88 -0.3,2.03 -0.77,2.67 -0.23,0.32 -0.45,0.53 -0.68,0.66 -0.23,0.13 -0.46,0.21 -0.89,0.21l-0.15 -0c-0.09,-0 -0.18,0.01 -0.27,0.02 -0,0 -0.01,0 -0.01,0 -2.07,0.01 -4,-0.88 -5.43,-1.85 -0.71,-0.48 -1.28,-0.97 -1.66,-1.33 -0.19,-0.18 -0.33,-0.32 -0.42,-0.42l-0.09 -0.1 -0.02 -0.02 -0 0c-0.86,-0.99 -2.37,-1.1 -3.37,-0.24 -1,0.87 -1.11,2.37 -0.24,3.37l-0 -0c0.09,0.1 1.2,1.38 3.12,2.68 1.26,0.85 2.91,1.74 4.87,2.25 -0.02,0.06 -0.03,0.11 -0.06,0.17 -0.25,0.57 -0.61,1.15 -1.59,1.72 -0.66,0.38 -1.13,0.57 -1.46,0.67 -0.33,0.1 -0.52,0.12 -0.76,0.12 -0.31,0 -0.77,-0.06 -1.55,-0.22 -0.14,-0.03 -0.28,-0.04 -0.42,-0.05 -0.05,-0.02 -0.1,-0.04 -0.16,-0.07 -0.79,-0.37 -1.76,-1.05 -2.47,-1.62 -0.36,-0.28 -0.66,-0.54 -0.87,-0.73l-0.23 -0.21 -0.05 -0.05 -0.01 -0.01c-0.96,-0.91 -2.47,-0.88 -3.38,0.08 -0.91,0.95 -0.88,2.47 0.08,3.38 0.05,0.05 1.06,1.01 2.47,2.02 0.25,0.18 0.53,0.36 0.81,0.53 -0.39,0.62 -0.8,1.05 -1.19,1.33 -0.64,0.44 -1.33,0.65 -2.22,0.65 -0.8,0 -1.74,-0.19 -2.68,-0.59 -0.31,-0.13 -0.62,-0.31 -0.92,-0.49 0.18,-0.67 0.28,-1.37 0.28,-2.06 0,-1.44 -0.39,-2.9 -1.2,-4.2 -1.37,-2.21 -3.67,-3.51 -6.07,-3.72 0,-0.09 0.02,-0.17 0.02,-0.26 0,-1.57 -0.43,-3.19 -1.32,-4.62l0 0c-1.66,-2.67 -4.53,-4.15 -7.45,-4.14 -0.11,0 -0.23,0.02 -0.34,0.02 -0.15,-1.24 -0.55,-2.47 -1.25,-3.59l0 0c-1.35,-2.18 -3.52,-3.55 -5.86,-3.98 -0.02,-1.55 -0.44,-3.13 -1.31,-4.53l0 0c-1.66,-2.66 -4.53,-4.14 -7.45,-4.14 -1.58,0 -3.19,0.43 -4.62,1.32l-3.07 1.91c-0.07,-0.17 -0.17,-0.33 -0.23,-0.5 -0.53,-1.28 -0.87,-2.54 -0.91,-3.41l-0.07 -1.35 -10.27 -8.97 19.48 -20.18c1,0.82 2.02,1.63 3.07,2.38 1.74,1.25 3.46,2.36 5.21,3.1 1.13,0.47 2.23,0.58 3.24,0.58 1.61,-0.01 3.1,-0.28 4.64,-0.51 0.1,-0.02 0.2,-0.03 0.3,-0.04 -2.12,1.82 -3.97,3.79 -5.54,5.62 -1.32,1.55 -2.43,3.01 -3.31,4.2 -0.87,1.18 -1.54,2.14 -1.84,2.52 -1.45,1.89 -2.07,4.15 -2.09,6.41 0.01,2.1 0.56,4.29 2.02,6.15 0.72,0.92 1.68,1.72 2.83,2.26 1.15,0.55 2.46,0.83 3.82,0.83 1.7,-0 3.47,-0.42 5.35,-1.21 5.9,-2.5 11.99,-4.16 16.57,-5.19 2.29,-0.51 4.21,-0.87 5.54,-1.09 0.25,-0.04 0.46,-0.08 0.67,-0.11l20.04 17.27 0.01 0 0.01 0.01c-0,0.06 -0.03,0.24 -0.18,0.51zm2.32 -14.55l-0.07 1.35c-0.04,0.77 -0.3,1.86 -0.74,2.98 -0.22,0.59 -0.5,1.18 -0.78,1.77l-17.55 -15.13c-0.68,-0.59 -1.59,-0.86 -2.48,-0.75 -0.16,0.03 -13.03,1.65 -25.83,7.04 -1.28,0.54 -2.23,0.71 -2.87,0.7 -0.52,0 -0.84,-0.09 -1.08,-0.21 -0.34,-0.17 -0.59,-0.4 -0.83,-0.85 -0.23,-0.45 -0.39,-1.1 -0.39,-1.8 -0.01,-1 0.34,-2.01 0.74,-2.49 0.5,-0.64 1.1,-1.52 1.94,-2.65 1.24,-1.68 2.92,-3.85 4.93,-5.97 2,-2.11 4.34,-4.16 6.78,-5.6 3.31,-1.94 6.12,-2.43 8.79,-2.44 1.64,-0 3.22,0.2 4.76,0.44 1.54,0.23 3.03,0.5 4.64,0.51 1.01,-0 2.1,-0.12 3.22,-0.58l0.02 -0c1.76,-0.74 3.48,-1.84 5.21,-3.1 1.04,-0.75 2.07,-1.57 3.06,-2.38l19.18 19.86 -10.64 9.28z"/>
   </g>
  </g>
  <rect class="fil1" width="136.29" height="136.29"/>
 </g>
</svg>
