<?xml version="1.0" encoding="UTF-8"?>
<!DOCTYPE svg PUBLIC "-//W3C//DTD SVG 1.1//EN" "http://www.w3.org/Graphics/SVG/1.1/DTD/svg11.dtd">
<!-- Creator: CorelDRAW -->
<svg xmlns="http://www.w3.org/2000/svg" xml:space="preserve" width="25.43mm" height="25.43mm" version="1.1" style="shape-rendering:geometricPrecision; text-rendering:geometricPrecision; image-rendering:optimizeQuality; fill-rule:evenodd; clip-rule:evenodd"
viewBox="0 0 75.81 75.81"
 xmlns:xlink="http://www.w3.org/1999/xlink"
 xmlns:xodm="http://www.corel.com/coreldraw/odm/2003">
 <defs>
  <style type="text/css">
   <![CDATA[
    .fil1 {fill:none}
    .fil0 {fill:#FED15D;fill-rule:nonzero}
   ]]>
  </style>
 </defs>
 <g id="Camada_x0020_1">
  <metadata id="CorelCorpID_0Corel-Layer"/>
  <g id="_2406825966816">
   <path class="fil0" d="M56.45 7.95c0,-1.58 1.28,-2.85 2.85,-2.85 1.58,0 2.85,1.28 2.85,2.85l0 1.67 3.63 -3.63c1.11,-1.11 2.92,-1.11 4.03,0 1.11,1.11 1.11,2.92 0,4.03l-3.63 3.63 1.67 0c1.58,0 2.85,1.28 2.85,2.85 0,1.58 -1.28,2.85 -2.85,2.85l-7.38 0 -22.01 22.01c-1.11,1.11 -2.92,1.11 -4.03,0 -1.11,-1.11 -1.11,-2.92 0,-4.03l22.01 -22.01 0 -7.38z"/>
   <path class="fil0" d="M51.87 15.91c1.26,-1.26 1.07,-3.36 -0.5,-4.21 -4.43,-2.39 -9.5,-3.75 -14.89,-3.75 -17.33,0 -31.39,14.05 -31.39,31.39 0,17.33 14.05,31.39 31.39,31.39 17.33,0 31.39,-14.05 31.39,-31.39 0,-5.38 -1.35,-10.44 -3.74,-14.86 -0.85,-1.57 -2.95,-1.76 -4.21,-0.5l-0.09 0.09c-0.94,0.94 -1.09,2.4 -0.48,3.59 1.79,3.51 2.81,7.48 2.81,11.69 0,14.18 -11.5,25.68 -25.68,25.68 -14.18,0 -25.68,-11.5 -25.68,-25.68 0,-14.18 11.5,-25.68 25.68,-25.68 4.22,0 8.2,1.02 11.71,2.82 1.19,0.61 2.65,0.46 3.59,-0.48l0.08 -0.08z"/>
   <path class="fil0" d="M43.3 24.47c1.35,-1.35 1.01,-3.62 -0.81,-4.19 -1.9,-0.6 -3.92,-0.92 -6.01,-0.92 -11.03,0 -19.97,8.94 -19.97,19.97 0,11.03 8.94,19.97 19.97,19.97 11.03,0 19.97,-8.94 19.97,-19.97 0,-2.08 -0.32,-4.09 -0.91,-5.98 -0.57,-1.82 -2.84,-2.16 -4.19,-0.81l-0.26 0.26c-0.8,0.8 -1.03,2 -0.76,3.1 0.27,1.1 0.41,2.25 0.41,3.43 0,7.88 -6.39,14.27 -14.27,14.27 -7.88,0 -14.27,-6.39 -14.27,-14.27 0,-7.88 6.39,-14.27 14.27,-14.27 1.19,0 2.35,0.15 3.45,0.42 1.1,0.27 2.3,0.05 3.1,-0.75l0.26 -0.26z"/>
   <path class="fil0" d="M33.85 31.21c1.17,-0.39 1.76,0.96 0.89,1.83l-2.3 2.3c-2.23,2.23 -2.23,5.83 0,8.06 2.23,2.23 5.83,2.23 8.06,0l2.27 -2.27c0.87,-0.87 2.22,-0.28 1.83,0.89 -1.15,3.37 -4.36,5.88 -8.11,5.88 -4.73,0 -8.56,-3.83 -8.56,-8.56 0,-3.77 2.53,-7 5.93,-8.13z"/>
  </g>
  <rect class="fil1" width="75.81" height="75.81"/>
 </g>
</svg>
