<?xml version="1.0" encoding="UTF-8"?>
<!DOCTYPE svg PUBLIC "-//W3C//DTD SVG 1.1//EN" "http://www.w3.org/Graphics/SVG/1.1/DTD/svg11.dtd">
<!-- Creator: CorelDRAW -->
<svg xmlns="http://www.w3.org/2000/svg" xml:space="preserve" width="25.43mm" height="25.43mm" version="1.1" style="shape-rendering:geometricPrecision; text-rendering:geometricPrecision; image-rendering:optimizeQuality; fill-rule:evenodd; clip-rule:evenodd"
viewBox="0 0 93.62 93.62"
 xmlns:xlink="http://www.w3.org/1999/xlink"
 xmlns:xodm="http://www.corel.com/coreldraw/odm/2003">
 <defs>
  <style type="text/css">
   <![CDATA[
    .fil1 {fill:none}
    .fil0 {fill:#FED15D;fill-rule:nonzero}
   ]]>
  </style>
 </defs>
 <g id="Camada_x0020_1">
  <metadata id="CorelCorpID_0Corel-Layer"/>
  <g id="_2407066946544">
   <g id="_16._Money_Bag" data-name="16. Money Bag">
    <path class="fil0" d="M78.43 66.96c-2.66,-11.98 -9.09,-22.81 -18.32,-30.88 2.37,-1.3 3.84,-3.78 3.84,-6.48 0,-3.66 -2.68,-6.77 -6.31,-7.31l3.94 -11.62c0.08,-0.25 0.12,-0.51 0.12,-0.77 0,-0.52 -0.16,-1.03 -0.47,-1.45 -0.46,-0.65 -1.21,-1.04 -2.01,-1.04 -0.04,0 -0.07,0 -0.11,0l-24.63 0c-0.79,0 -1.54,0.39 -1.99,1.03 -0.3,0.42 -0.47,0.93 -0.47,1.45 0,0.26 0.04,0.52 0.12,0.77l3.89 11.53c-3.62,0.54 -6.31,3.65 -6.31,7.31 0,2.7 1.48,5.19 3.84,6.48 -9.29,8.1 -15.77,18.99 -18.42,31.03 -0.25,1.12 -0.37,2.28 -0.37,3.43 0,8.72 7.07,15.79 15.79,15.79l32.46 0c8.72,0 15.79,-7.07 15.79,-15.79 0,-0 0,-0 0,-0 0,-1.17 -0.13,-2.34 -0.39,-3.47l-0 0zm-22.73 -54.63l-3.28 9.85 -11.23 0 -3.28 -9.85 17.78 0zm-18.74 14.78l19.7 0c1.36,0 2.46,1.1 2.46,2.46 0,1.36 -1.1,2.46 -2.46,2.46l-19.7 0c-1.36,0 -2.46,-1.1 -2.46,-2.46 0,-1.36 1.1,-2.46 2.46,-2.46l0 0zm26.08 54.18l-32.46 0c-5.99,-0.01 -10.85,-4.87 -10.86,-10.86 0,-0.83 0.1,-1.66 0.27,-2.46 2.77,-12.43 9.97,-23.45 20.22,-31.01l13.2 -0c10.28,7.58 17.48,18.65 20.25,31.13 0.16,0.77 0.24,1.56 0.25,2.34 -0.01,5.99 -4.87,10.85 -10.86,10.86l-0 0z"/>
    <path class="fil0" d="M46.81 51.74l4.93 0c1.36,0 2.46,-1.1 2.46,-2.46 0,-1.36 -1.1,-2.46 -2.46,-2.46l-2.46 0c0,-1.36 -1.1,-2.46 -2.46,-2.46 -1.36,0 -2.46,1.1 -2.46,2.46l0 0.44c-2.92,1.06 -4.87,3.84 -4.87,6.95 0,4.06 3.27,7.36 7.33,7.39 1.36,-0 2.46,1.1 2.46,2.46 0,1.36 -1.1,2.46 -2.46,2.46l-4.93 0c-1.36,0 -2.46,1.1 -2.46,2.46 0,1.36 1.1,2.46 2.46,2.46l2.46 0c0,1.36 1.1,2.46 2.46,2.46 1.36,0 2.46,-1.1 2.46,-2.46l0 -0.44c2.92,-1.06 4.87,-3.84 4.87,-6.95 0,-4.06 -3.27,-7.36 -7.33,-7.39 -1.36,0 -2.46,-1.1 -2.46,-2.46 0,-1.36 1.1,-2.46 2.46,-2.46l0 0z"/>
   </g>
  </g>
  <rect class="fil1" width="93.62" height="93.62"/>
 </g>
</svg>
