<?xml version="1.0" encoding="UTF-8"?>
<!DOCTYPE svg PUBLIC "-//W3C//DTD SVG 1.1//EN" "http://www.w3.org/Graphics/SVG/1.1/DTD/svg11.dtd">
<!-- Creator: CorelDRAW -->
<svg xmlns="http://www.w3.org/2000/svg" xml:space="preserve" width="25.43mm" height="25.43mm" version="1.1" style="shape-rendering:geometricPrecision; text-rendering:geometricPrecision; image-rendering:optimizeQuality; fill-rule:evenodd; clip-rule:evenodd"
viewBox="0 0 86.82 86.82"
 xmlns:xlink="http://www.w3.org/1999/xlink"
 xmlns:xodm="http://www.corel.com/coreldraw/odm/2003">
 <defs>
  <style type="text/css">
   <![CDATA[
    .fil1 {fill:none}
    .fil0 {fill:#FED15D;fill-rule:nonzero}
   ]]>
  </style>
 </defs>
 <g id="Camada_x0020_1">
  <metadata id="CorelCorpID_0Corel-Layer"/>
  <path class="fil0" d="M76.25 77.72l-65.68 0c-1.66,-0 -3,-1.35 -3,-3.01 0,0 0,0 0,0l0 -62.6c0,-1.66 1.35,-3.01 3.01,-3.01 1.66,0 3.01,1.35 3.01,3.01l0 59.6 62.66 -0c1.66,0 3.01,1.35 3.01,3.01 0,1.66 -1.35,3.01 -3.01,3.01l0.01 0zm-56.61 -12.14l0 -33.28c0,-1.42 1.16,-2.58 2.58,-2.58l4.27 0c1.42,0 2.58,1.16 2.58,2.58l0 33.28 -9.42 0zm15.12 0l0 -51.63c0,-1.42 1.16,-2.58 2.58,-2.58l4.27 0c1.42,0 2.58,1.16 2.58,2.58l0 51.63 -9.42 0zm15.12 0l0 -33.28c0,-1.42 1.16,-2.58 2.58,-2.58l4.27 0c1.42,0 2.58,1.16 2.58,2.58l0 33.28 -9.42 0zm15.12 0l0 -14.94c0,-1.42 1.16,-2.58 2.58,-2.58l4.26 0c1.42,0 2.58,1.16 2.58,2.58l0 14.94 -9.42 0z"/>
  <rect class="fil1" width="86.82" height="86.82"/>
 </g>
</svg>
