<?xml version="1.0" encoding="UTF-8"?>
<!DOCTYPE svg PUBLIC "-//W3C//DTD SVG 1.1//EN" "http://www.w3.org/Graphics/SVG/1.1/DTD/svg11.dtd">
<!-- Creator: CorelDRAW -->
<svg xmlns="http://www.w3.org/2000/svg" xml:space="preserve" width="25.43mm" height="25.43mm" version="1.1" style="shape-rendering:geometricPrecision; text-rendering:geometricPrecision; image-rendering:optimizeQuality; fill-rule:evenodd; clip-rule:evenodd"
viewBox="0 0 473.09 473.09"
 xmlns:xlink="http://www.w3.org/1999/xlink"
 xmlns:xodm="http://www.corel.com/coreldraw/odm/2003">
 <defs>
  <style type="text/css">
   <![CDATA[
    .fil0 {fill:none;fill-rule:nonzero}
    .fil1 {fill:#FED15D}
   ]]>
  </style>
 </defs>
 <g id="Camada_x0020_1">
  <metadata id="CorelCorpID_0Corel-Layer"/>
  <rect class="fil0" width="473.09" height="473.09"/>
  <path class="fil1" d="M66.35 290.56c-7.98,0.09 -19.79,0.21 -19.79,-10.28 0,-12.09 -0.28,-24.15 -0.33,-36.24 -0.02,-4.29 -0.21,-11.6 1.38,-15.61 1.38,-3.5 3.99,-4.72 7.34,-5.93 4.66,-1.68 8.69,-3.12 13.08,-5.34 0.09,-31.06 3.64,-58.63 18.26,-86.48 3.96,-7.54 8.13,-15.04 13.26,-21.85 5.29,-7.02 10.02,-13.34 16.31,-19.58 14.51,-14.38 32.71,-28.31 51.73,-36.02 3.6,-1.46 7.49,-2.71 11,-4.42 -0.08,-5.04 -0.55,-10.46 0.33,-15.34 0.76,-4.23 4.22,-10.2 9.13,-10.2l95.72 0c12.41,0 10.5,16.45 10.29,25.49 3.84,1.7 7.92,2.89 11.75,4.68 12.39,5.77 21.97,11.44 32.93,19.63 36.25,27.08 58.14,67.11 64.58,111.65 1.54,10.62 1.32,21.39 1.3,32.1 7.72,2.13 22.28,8.24 22.28,16.42l0 46.21c0,11.03 -11.43,11.15 -19.77,11.1 0.22,7.54 1.23,19.29 -4.76,23.74 -4.21,3.13 -27.26,2.03 -35.99,1.85 -1.45,7.61 -7.75,21.95 -11.69,28.43 6.25,8.31 20.3,16.78 23.39,25.92 2.51,7.43 -3.91,12.44 -8.51,17.04l-25.17 25.17c-4.83,4.83 -9.64,10.84 -17.39,7.97 -7.92,-2.93 -17.25,-17.27 -25.15,-23.26 -6.53,3.98 -20.77,10.25 -28.43,11.69 0.13,8.56 0.95,31.56 -1.41,35.36 -1.81,2.91 -6.27,5.34 -9.7,5.34l-50.34 0c-10.86,0 -12.82,-7.7 -12.77,-16.86 0.04,-7.94 0.02,-15.89 0.02,-23.83 -8.08,-1.46 -21.08,-7.95 -28.36,-11.77 -5.49,4.07 -12.31,12.22 -17.08,17.01 -10.58,10.62 -14.32,8.77 -24.31,-1.24 -7.43,-7.45 -15.05,-14.66 -22.54,-22.04 -3.49,-3.43 -8.55,-8.28 -10.86,-12.61 -4.68,-8.79 4.74,-15.89 10.29,-21.43 3.65,-3.65 8.01,-8.88 12.23,-12.17 -2.35,-4.45 -4.69,-8.94 -6.6,-13.64l-5.41 -15.08c-8.39,0.15 -30.31,1.3 -35.68,-1.88 -3.29,-1.95 -4.13,-5.37 -4.44,-8.96 -0.4,-4.7 -0.17,-9.88 -0.11,-14.75zm134.43 -245.09l0 140.37 71.05 0 0 -140.37 -71.05 0zm-132.85 195.24l0 27.65 337.59 0c0.03,-6.09 0.18,-12.15 0.32,-18.24 0.05,-2.17 0.26,-6.25 -0.34,-8.32 -0.65,-2.24 -8.09,-4.11 -10.3,-5.08 -4.62,-2.01 -9.96,-3.52 -11.56,-9.01 -1.21,-4.16 -1.11,-9.03 -1,-13.34 0.15,-6.08 0.36,-12 0.03,-18.09 -1.12,-20.68 -7.67,-39.96 -16.82,-58.41 -3.86,-7.78 -8.82,-14.85 -14.02,-21.78 -12.09,-16.11 -30.92,-30.76 -48.89,-39.75 -1.99,-0.99 -3.95,-2.07 -5.98,-2.98 -0.97,-0.43 -1.95,-0.81 -2.93,-1.2l0 108.27c0,10.91 3.5,27.6 -12.75,27.6l-89.95 0c-6.7,0 -11.26,-3.56 -12.43,-10.2 -0.34,-1.89 -0.26,-4.96 -0.29,-6.91 -0.09,-4.81 -0.12,-9.63 -0.15,-14.44 -0.08,-14.02 -0.07,-28.04 -0.06,-42.06 0.03,-20.72 0.17,-41.44 0.18,-62.17 -3.13,1.4 -6.38,2.62 -9.3,4.33 -22.92,13.44 -41.33,27.39 -55.62,50.29 -12.55,20.12 -20.63,40.64 -22.67,64.43 -0.51,5.97 -0.61,11.86 -0.41,17.84 0.13,3.95 0.49,8.1 0.3,12.04 -0.39,8.3 -4.16,11.79 -11.73,14.87 -3.16,1.29 -7.6,3.74 -11.24,4.65zm118.01 49.84c0.62,2.26 0.96,4.64 1.82,6.81 0.96,2.42 2.13,5.43 3.47,7.64 5.89,9.77 13.03,16.3 23.26,21.35 9.32,4.6 15.4,4.72 25.53,4.72 12.17,0 23.95,-6.2 32.63,-14.44 6.85,-6.5 13.67,-16.3 14.73,-26.09l-101.44 0zm-98.21 0l0 4.21c7.16,-0.04 14.32,-0.29 21.46,-0.27 3.52,0.01 8.41,0.02 11.54,1.83 3.01,1.75 4.25,4.94 5.28,8.09 1.74,5.31 3.16,10.63 5.02,15.94 1.55,4.4 3.82,8.51 5.97,12.64 2.54,4.9 6.01,8.02 6.01,14.13 0,4.78 -15.64,20.45 -22.29,25.98l21.32 21.7c3.85,-3.03 8.04,-8.05 11.35,-11.35 3.4,-3.4 10.06,-10.91 15.17,-11.18 4.18,-0.22 11.12,4.73 14.82,6.75 4.07,2.22 8.5,4.14 12.81,5.84 4.7,1.86 9.46,3.05 14.32,4.38 2.96,0.81 5.56,1.37 7.72,3.72 4.99,5.45 3.46,25.9 3.21,35.48 6.86,0.03 13.71,0.17 20.56,0.25 2.4,0.03 7.14,0.22 9.42,-0.46 0.89,-0.26 0.89,-0.5 0.93,-1.43 0.09,-2.49 -0.32,-5.31 -0.32,-7.9 -0.01,-5.32 -0.83,-17.43 0.76,-22.25 1.77,-5.38 7.44,-6.52 12.31,-7.76 9.74,-2.48 18.78,-6.6 27.59,-11.38 6.51,-3.53 5.25,-4.37 13.34,-4.37 5.42,0 18.31,16.34 24.78,21.81l21.27 -21.64c-2.95,-3.75 -7.72,-7.72 -10.96,-10.96 -4.61,-4.61 -12.82,-11.55 -10.39,-18.86 0.94,-2.81 3.07,-5.96 4.55,-8.56 2.75,-4.79 5.01,-9.63 6.93,-14.82 0.89,-2.4 1.89,-4.64 2.62,-7.11 2.01,-6.86 2.86,-18.26 12.36,-18.26l27.69 0 0 -4.22 -75.28 0c-1.15,16.26 -11.89,31.72 -22.97,42.94 -24.8,25.09 -69.01,26.01 -95.96,3.83 -8.58,-7.06 -14.3,-13 -19.32,-23.13 -1.98,-3.99 -3.87,-7.44 -5.2,-11.82l-2.83 -11.82 -75.61 0z"/>
 </g>
</svg>
