<?xml version="1.0" encoding="UTF-8"?>
<!DOCTYPE svg PUBLIC "-//W3C//DTD SVG 1.1//EN" "http://www.w3.org/Graphics/SVG/1.1/DTD/svg11.dtd">
<!-- Creator: CorelDRAW -->
<svg xmlns="http://www.w3.org/2000/svg" xml:space="preserve" width="25.43mm" height="25.43mm" version="1.1" style="shape-rendering:geometricPrecision; text-rendering:geometricPrecision; image-rendering:optimizeQuality; fill-rule:evenodd; clip-rule:evenodd"
viewBox="0 0 80.95 80.95"
 xmlns:xlink="http://www.w3.org/1999/xlink"
 xmlns:xodm="http://www.corel.com/coreldraw/odm/2003">
 <defs>
  <style type="text/css">
   <![CDATA[
    .fil1 {fill:none}
    .fil0 {fill:#FED15D;fill-rule:nonzero}
   ]]>
  </style>
 </defs>
 <g id="Camada_x0020_1">
  <metadata id="CorelCorpID_0Corel-Layer"/>
  <path class="fil0" d="M31.92 53.15l21.23 -21.23c0.78,-0.78 1.95,-0.95 2.89,-0.5 1.99,0.74 4.14,0.88 6.21,0.46 2.12,-0.43 4.15,-1.46 5.86,-3.05 1.59,-1.49 2.57,-3.4 2.99,-5.42 0.16,-0.81 0.24,-1.63 0.23,-2.46l-3.27 3.27c-0.73,0.73 -1.78,0.92 -2.69,0.59l-5.85 -1.59c-0.91,-0.25 -1.57,-0.96 -1.79,-1.81l-1.65 -6.04c-0.25,-0.91 0.03,-1.84 0.65,-2.46l-0.01 -0.01 3.21 -3.21c-0.7,0.01 -1.4,0.09 -2.09,0.23 -2.12,0.43 -4.15,1.46 -5.86,3.05 -1.59,1.49 -2.57,3.4 -2.99,5.43 -0.45,2.22 -0.23,4.57 0.59,6.69 0.37,0.97 0.12,2.02 -0.57,2.71l0.01 0.01 -21.23 21.23c-0.78,0.78 -1.95,0.95 -2.89,0.5 -1.99,-0.74 -4.14,-0.88 -6.21,-0.46 -2.12,0.43 -4.15,1.46 -5.86,3.05 -1.59,1.49 -2.57,3.4 -2.99,5.42 -0.16,0.81 -0.24,1.63 -0.23,2.46l3.27 -3.27c0.73,-0.73 1.78,-0.92 2.69,-0.59l5.85 1.59c0.91,0.25 1.57,0.96 1.79,1.81l1.65 6.04c0.25,0.91 -0.03,1.84 -0.65,2.46l0.01 0.01 -3.21 3.21c0.7,-0.01 1.4,-0.09 2.09,-0.23 2.12,-0.43 4.15,-1.46 5.86,-3.05 1.59,-1.49 2.57,-3.4 2.99,-5.42 0.45,-2.22 0.23,-4.57 -0.59,-6.69 -0.37,-0.97 -0.12,-2.02 0.57,-2.71l-0.01 -0.01zm23.73 -16.53l-19.03 19.03c0.71,2.57 0.83,5.31 0.29,7.92 -0.61,3.02 -2.09,5.88 -4.5,8.13 -2.4,2.24 -5.29,3.69 -8.31,4.3 -3,0.61 -6.13,0.4 -9.03,-0.69 -0.4,-0.12 -0.77,-0.33 -1.09,-0.64 -0.99,-0.99 -0.99,-2.61 0,-3.6l5.58 -5.58 -0.88 -3.24 -3.24 -0.88 -5.58 5.58 -0.01 -0.01c-0.24,0.24 -0.54,0.44 -0.88,0.57 -1.31,0.51 -2.78,-0.15 -3.28,-1.45 -1.17,-3.01 -1.48,-6.36 -0.83,-9.54 0.62,-3.02 2.09,-5.88 4.5,-8.13 2.4,-2.24 5.29,-3.69 8.31,-4.3 2.52,-0.51 5.13,-0.44 7.61,0.23l19.03 -19.03c-0.71,-2.57 -0.83,-5.31 -0.29,-7.92 0.62,-3.02 2.09,-5.88 4.5,-8.13 2.4,-2.24 5.29,-3.69 8.31,-4.3 3,-0.61 6.13,-0.4 9.03,0.69 0.4,0.12 0.77,0.33 1.09,0.64 0.99,0.99 0.99,2.61 0,3.6l-5.58 5.58 0.88 3.24 3.24 0.88 5.58 -5.58 0.01 0.01c0.24,-0.24 0.54,-0.44 0.88,-0.57 1.31,-0.51 2.78,0.15 3.28,1.45 1.17,3.01 1.48,6.36 0.83,9.54 -0.62,3.02 -2.09,5.88 -4.5,8.13 -2.4,2.24 -5.29,3.69 -8.31,4.3 -2.52,0.51 -5.13,0.44 -7.61,-0.23z"/>
  <rect class="fil1" width="80.95" height="80.95"/>
 </g>
</svg>
