<?xml version="1.0" encoding="UTF-8"?>
<!DOCTYPE svg PUBLIC "-//W3C//DTD SVG 1.1//EN" "http://www.w3.org/Graphics/SVG/1.1/DTD/svg11.dtd">
<!-- Creator: CorelDRAW -->
<svg xmlns="http://www.w3.org/2000/svg" xml:space="preserve" width="25.43mm" height="25.43mm" version="1.1" style="shape-rendering:geometricPrecision; text-rendering:geometricPrecision; image-rendering:optimizeQuality; fill-rule:evenodd; clip-rule:evenodd"
viewBox="0 0 852.81 852.81"
 xmlns:xlink="http://www.w3.org/1999/xlink"
 xmlns:xodm="http://www.corel.com/coreldraw/odm/2003">
 <defs>
  <style type="text/css">
   <![CDATA[
    .fil0 {fill:none;fill-rule:nonzero}
    .fil1 {fill:#FED15D;fill-rule:nonzero}
   ]]>
  </style>
 </defs>
 <g id="Camada_x0020_1">
  <metadata id="CorelCorpID_0Corel-Layer"/>
  <rect class="fil0" width="852.81" height="852.81"/>
  <path class="fil1" d="M488.62 92.63l0 0zm0 0l-53.87 283.09 195.17 0.65 -265.68 383.75 53.89 -311.43 -195.17 -0.69 265.66 -355.36zm0.02 -47.73c-1.29,0 -2.58,0.05 -3.84,0.14 -8.43,0.67 -14.02,3.51 -20.63,7.95 -3.68,2.43 -7.04,5.44 -10,8.9 -0.88,1.03 -1.69,2.1 -2.46,3.2l-267.59 354.14c-10.55,14.49 -12.13,33.6 -4.01,49.57 8.12,15.97 24.5,26.1 42.48,26.24l137.84 1 -43.33 255.34c-4.11,21.94 7.59,43.81 28.17,52.62 6.14,2.63 12.58,3.89 18.93,3.89 15.02,0 27.34,-7.02 36.6,-19.7l267.9 -383.75c10.55,-14.49 12.11,-33.62 4.01,-49.57 -8.12,-15.97 -24.5,-26.1 -42.48,-26.22l-137.84 -0.24 42.88 -224.49c0.91,-3.61 1.36,-7.35 1.36,-11.22 0,-25.83 -20.56,-46.89 -46.3,-47.73 -0.57,-0.03 -1.12,-0.03 -1.7,-0.03l0 0 0 -0.07z"/>
 </g>
</svg>
