<?xml version="1.0" encoding="UTF-8"?>
<!DOCTYPE svg PUBLIC "-//W3C//DTD SVG 1.1//EN" "http://www.w3.org/Graphics/SVG/1.1/DTD/svg11.dtd">
<!-- Creator: CorelDRAW -->
<svg xmlns="http://www.w3.org/2000/svg" xml:space="preserve" width="25.43mm" height="25.43mm" version="1.1" style="shape-rendering:geometricPrecision; text-rendering:geometricPrecision; image-rendering:optimizeQuality; fill-rule:evenodd; clip-rule:evenodd"
viewBox="0 0 110.99 110.99"
 xmlns:xlink="http://www.w3.org/1999/xlink"
 xmlns:xodm="http://www.corel.com/coreldraw/odm/2003">
 <defs>
  <style type="text/css">
   <![CDATA[
    .fil1 {fill:none}
    .fil0 {fill:#FED15D;fill-rule:nonzero}
   ]]>
  </style>
 </defs>
 <g id="Camada_x0020_1">
  <metadata id="CorelCorpID_0Corel-Layer"/>
  <path class="fil0" d="M34.78 55.33c-1.55,-1.55 -1.55,-4.07 0,-5.62 1.55,-1.55 4.07,-1.55 5.63,0l11.11 11.11 21.05 -21.05c1.55,-1.55 4.07,-1.55 5.63,0 1.55,1.55 1.55,4.07 0,5.62l-23.87 23.87c-1.55,1.55 -4.07,1.55 -5.62,0l-13.92 -13.92zm-15.87 -34.05l35.5 -10.36c0.77,-0.22 1.54,-0.2 2.25,0.01l35.74 10.44c1.73,0.5 2.86,2.09 2.86,3.81l0.01 0 0 21.44c0,12.1 -3.88,23.54 -10.64,32.92 -6.75,9.37 -16.38,16.66 -27.89,20.5 -0.86,0.28 -1.74,0.26 -2.53,-0.01 -11.49,-3.84 -21.11,-11.13 -27.85,-20.48 -6.76,-9.38 -10.65,-20.82 -10.65,-32.93l0 -21.43c0,-1.93 1.37,-3.54 3.2,-3.9zm36.6 -2.42l-31.84 9.29 0 18.46c0,10.43 3.33,20.26 9.12,28.3 5.56,7.71 13.38,13.79 22.7,17.17 9.32,-3.39 17.14,-9.46 22.7,-17.17 5.79,-8.04 9.12,-17.87 9.12,-28.29l0 -18.47 -31.81 -9.29z"/>
  <rect class="fil1" width="110.99" height="110.99"/>
 </g>
</svg>
