<?xml version="1.0" encoding="UTF-8"?>
<!DOCTYPE svg PUBLIC "-//W3C//DTD SVG 1.1//EN" "http://www.w3.org/Graphics/SVG/1.1/DTD/svg11.dtd">
<!-- Creator: CorelDRAW -->
<svg xmlns="http://www.w3.org/2000/svg" xml:space="preserve" width="25.43mm" height="25.43mm" version="1.1" style="shape-rendering:geometricPrecision; text-rendering:geometricPrecision; image-rendering:optimizeQuality; fill-rule:evenodd; clip-rule:evenodd"
viewBox="0 0 164.08 164.08"
 xmlns:xlink="http://www.w3.org/1999/xlink"
 xmlns:xodm="http://www.corel.com/coreldraw/odm/2003">
 <defs>
  <style type="text/css">
   <![CDATA[
    .fil1 {fill:none}
    .fil0 {fill:#FED15D;fill-rule:nonzero}
   ]]>
  </style>
 </defs>
 <g id="Camada_x0020_1">
  <metadata id="CorelCorpID_0Corel-Layer"/>
  <path class="fil0" d="M19.73 147.38c-2.58,0 -4.67,-2.09 -4.67,-4.67 0,-2.58 2.09,-4.67 4.67,-4.67l1.28 0 0.29 -70.29 -0.02 0c0,-2.59 0.62,-5.13 1.76,-7.45 1.13,-2.3 2.77,-4.36 4.83,-5.98l0.02 -0.02 -0 -0 43.63 -33.97 -0.01 -0.01c3.09,-2.4 6.79,-3.6 10.51,-3.6 3.69,0 7.4,1.19 10.52,3.58l0.03 0.02 0.01 -0.01 7.15 5.56 25.75 0 0 0.02c2.55,-0 4.64,2.06 4.66,4.62l0.19 18.69c0,0.15 -0,0.29 -0.02,0.43l5.89 4.58c0.1,0.08 0.2,0.16 0.29,0.24 1.97,1.6 3.52,3.56 4.58,5.75 1.13,2.32 1.73,4.89 1.73,7.54l0 70.29 1.56 0c2.58,0 4.67,2.09 4.67,4.67 0,2.58 -2.09,4.67 -4.67,4.67l-46.74 0 -31.16 0 -46.74 0zm92.02 -112.16l9.19 7.14 -0.07 -7.14 -9.12 0zm-16.02 -0.62c-0.38,-0.22 -0.72,-0.48 -1.02,-0.79l-7.87 -6.12 0 -0.01c-1.43,-1.08 -3.13,-1.63 -4.83,-1.63 -1.69,0 -3.38,0.54 -4.77,1.63l-0.01 -0.01 -43.61 33.95 -0 -0c-0.94,0.75 -1.7,1.7 -2.22,2.75 -0.5,1.02 -0.77,2.17 -0.77,3.36l-0.02 0 -0.29 70.29 31.47 0 0 -17.14c0,-3.88 1.57,-7.38 4.1,-9.92 2.54,-2.54 6.04,-4.1 9.92,-4.1l12.46 0c3.88,0 7.38,1.57 9.92,4.1 2.54,2.54 4.1,6.04 4.1,9.92l0 17.14 31.16 0 0 -70.29c0,-1.22 -0.27,-2.4 -0.78,-3.45 -0.48,-0.98 -1.15,-1.85 -2,-2.55 -0.07,-0.05 -0.14,-0.1 -0.21,-0.15l-34.73 -26.99zm14.35 61.38l-12.46 0c-3,0 -5.73,-1.23 -7.71,-3.2 -1.97,-1.97 -3.2,-4.7 -3.2,-7.71l0 -9.35c0,-3 1.23,-5.73 3.2,-7.71 1.97,-1.97 4.7,-3.2 7.71,-3.2l12.46 0c3,0 5.73,1.23 7.71,3.2 1.97,1.97 3.2,4.7 3.2,7.71l0 9.35c0,3 -1.23,5.73 -3.2,7.71 -1.97,1.97 -4.7,3.2 -7.71,3.2zm-12.46 -9.35l12.46 0c0.42,0 0.81,-0.18 1.1,-0.46 0.28,-0.28 0.46,-0.67 0.46,-1.1l0 -9.35c0,-0.42 -0.18,-0.81 -0.46,-1.1 -0.28,-0.28 -0.67,-0.46 -1.1,-0.46l-12.46 0c-0.42,0 -0.81,0.18 -1.1,0.46 -0.28,0.28 -0.46,0.67 -0.46,1.1l0 9.35c0,0.42 0.18,0.81 0.46,1.1 0.28,0.28 0.67,0.46 1.1,0.46zm-31.16 9.35l-12.46 0c-3,0 -5.73,-1.23 -7.71,-3.2 -1.97,-1.97 -3.2,-4.7 -3.2,-7.71l0 -9.35c0,-3 1.23,-5.73 3.2,-7.71 1.97,-1.97 4.7,-3.2 7.71,-3.2l12.46 0c3,0 5.73,1.23 7.71,3.2 1.97,1.97 3.2,4.7 3.2,7.71l0 9.35c0,3 -1.23,5.73 -3.2,7.71 -1.97,1.97 -4.7,3.2 -7.71,3.2zm-12.46 -9.35l12.46 0c0.42,0 0.81,-0.18 1.1,-0.46 0.28,-0.28 0.46,-0.67 0.46,-1.1l0 -9.35c0,-0.42 -0.18,-0.81 -0.46,-1.1 -0.28,-0.28 -0.67,-0.46 -1.1,-0.46l-12.46 0c-0.42,0 -0.81,0.18 -1.1,0.46 -0.28,0.28 -0.46,0.67 -0.46,1.1l0 9.35c0,0.42 0.18,0.81 0.46,1.1 0.28,0.28 0.67,0.46 1.1,0.46zm34.27 29.6l-12.46 0c-1.3,0 -2.47,0.52 -3.31,1.36 -0.84,0.84 -1.36,2.01 -1.36,3.31l0 17.14 21.81 0 0 -17.14c0,-1.3 -0.52,-2.46 -1.36,-3.31 -0.84,-0.84 -2.01,-1.36 -3.31,-1.36z"/>
  <rect class="fil1" width="164.08" height="164.08"/>
 </g>
</svg>
