<?xml version="1.0" encoding="UTF-8"?>
<!DOCTYPE svg PUBLIC "-//W3C//DTD SVG 1.1//EN" "http://www.w3.org/Graphics/SVG/1.1/DTD/svg11.dtd">
<!-- Creator: CorelDRAW -->
<svg xmlns="http://www.w3.org/2000/svg" xml:space="preserve" width="25.43mm" height="25.43mm" version="1.1" style="shape-rendering:geometricPrecision; text-rendering:geometricPrecision; image-rendering:optimizeQuality; fill-rule:evenodd; clip-rule:evenodd"
viewBox="0 0 126.76 126.76"
 xmlns:xlink="http://www.w3.org/1999/xlink"
 xmlns:xodm="http://www.corel.com/coreldraw/odm/2003">
 <defs>
  <style type="text/css">
   <![CDATA[
    .fil1 {fill:none}
    .fil0 {fill:#FED15D}
   ]]>
  </style>
 </defs>
 <g id="Camada_x0020_1">
  <metadata id="CorelCorpID_0Corel-Layer"/>
  <path class="fil0" d="M102.9 116.56c2.73,0 5.71,0.19 8.22,-1.09 0.93,-0.48 1.79,-1.09 2.53,-1.83 0.74,-0.74 1.36,-1.6 1.83,-2.53 1.28,-2.51 1.09,-5.49 1.09,-8.22l0 -70.82c0,-1.54 0.03,-3.1 -0.11,-4.64 -0.14,-1.61 -0.48,-3.04 -1.56,-4.29 -0.71,-0.83 -1.6,-1.46 -2.6,-1.88 -0.99,-0.41 -2.08,-0.59 -3.15,-0.51 -3.08,0.24 -5.44,3.1 -7.48,5.14l-18.08 18.08c-0.69,0.69 -1.7,0.89 -2.6,0.52 -0.91,-0.38 -1.47,-1.22 -1.47,-2.2l0 -10.22c0,-1.54 0.03,-3.1 -0.11,-4.64 -0.14,-1.61 -0.48,-3.04 -1.56,-4.29 -0.7,-0.83 -1.6,-1.46 -2.6,-1.88 -0.99,-0.41 -2.08,-0.59 -3.14,-0.51 -3.08,0.24 -5.44,3.1 -7.48,5.14l-18.08 18.08c-0.69,0.69 -1.7,0.89 -2.6,0.52 -0.91,-0.38 -1.47,-1.22 -1.47,-2.2l0 -23.38c0,-1.83 0.11,-3.28 -0.75,-4.97 -0.32,-0.64 -0.76,-1.22 -1.26,-1.72l-0.02 -0.02c-0.5,-0.5 -1.08,-0.94 -1.72,-1.26 -1.69,-0.86 -3.14,-0.75 -4.97,-0.75l-14.82 0c-1.83,0 -3.28,-0.11 -4.97,0.75 -0.63,0.32 -1.21,0.76 -1.71,1.25l-0.02 0.02c-0.51,0.51 -0.95,1.09 -1.28,1.74 -0.86,1.69 -0.75,3.14 -0.75,4.97l0 83.98c0,2.73 -0.19,5.71 1.09,8.22 0.47,0.93 1.09,1.79 1.83,2.53 0.74,0.74 1.6,1.36 2.53,1.83 2.51,1.28 5.49,1.09 8.22,1.09l79.04 0zm-63.6 -60.41c0.94,0.36 1.98,0.52 3.01,0.44 3.08,-0.24 5.44,-3.1 7.48,-5.15l18.08 -18.08c0.69,-0.69 1.7,-0.89 2.6,-0.52 0.91,0.38 1.47,1.22 1.47,2.2l0 10.22c0,2.9 -0.36,6.57 1.66,8.93 0.71,0.83 1.6,1.46 2.6,1.88 0.99,0.41 2.08,0.59 3.15,0.51 1.64,-0.13 2.89,-0.91 4.11,-1.94 1.19,-1 2.28,-2.11 3.37,-3.21l18.08 -18.08c0.69,-0.69 1.7,-0.89 2.6,-0.52 0.91,0.38 1.47,1.22 1.47,2.2l0 67.84c0,1.27 0.06,2.55 -0,3.82 -0.06,1.25 -1.08,2.25 -2.33,2.27 -1.25,0.03 -2.5,-0 -3.76,-0l-79.04 0c-1.26,0 -2.52,0.04 -3.77,0 -1.27,-0.04 -2.29,-1.07 -2.32,-2.34 -0.02,-1.25 0,-2.5 0,-3.75l0 -82.74c0,-1.32 1.07,-2.39 2.39,-2.39l12.35 0c1.32,0 2.39,1.07 2.39,2.39l0 25.12c0,2.9 -0.36,6.57 1.66,8.93 0.7,0.82 1.59,1.46 2.59,1.87 0.07,0.03 0.13,0.06 0.15,0.07zm-6.79 35.71l6.17 0c2.09,0 3.79,-1.7 3.79,-3.79 0,-2.09 -1.7,-3.79 -3.79,-3.79l-6.17 0c-2.09,0 -3.79,1.7 -3.79,3.79 0,2.09 1.7,3.79 3.79,3.79zm27.79 0l6.18 0c2.09,0 3.79,-1.7 3.79,-3.79 0,-2.09 -1.7,-3.79 -3.79,-3.79l-6.18 0c-2.09,0 -3.79,1.7 -3.79,3.79 0,2.09 1.7,3.79 3.79,3.79zm27.79 0l6.18 0c2.09,0 3.79,-1.7 3.79,-3.79 0,-2.09 -1.7,-3.79 -3.79,-3.79l-6.18 0c-2.09,0 -3.79,1.7 -3.79,3.79 0,2.09 1.7,3.79 3.79,3.79z"/>
  <rect class="fil1" width="126.76" height="126.76"/>
 </g>
</svg>
