<?xml version="1.0" encoding="UTF-8"?>
<!DOCTYPE svg PUBLIC "-//W3C//DTD SVG 1.1//EN" "http://www.w3.org/Graphics/SVG/1.1/DTD/svg11.dtd">
<!-- Creator: CorelDRAW -->
<svg xmlns="http://www.w3.org/2000/svg" xml:space="preserve" width="25.43mm" height="25.43mm" version="1.1" style="shape-rendering:geometricPrecision; text-rendering:geometricPrecision; image-rendering:optimizeQuality; fill-rule:evenodd; clip-rule:evenodd"
viewBox="0 0 113.81 113.81"
 xmlns:xlink="http://www.w3.org/1999/xlink"
 xmlns:xodm="http://www.corel.com/coreldraw/odm/2003"
 xmlns:dc="http://purl.org/dc/elements/1.1/"
 xmlns:cc="http://creativecommons.org/ns#"
 xmlns:rdf="http://www.w3.org/1999/02/22-rdf-syntax-ns#"
 xmlns:svg="http://www.w3.org/2000/svg"
 xmlns:sodipodi="http://sodipodi.sourceforge.net/DTD/sodipodi-0.dtd"
 xmlns:inkscape="http://www.inkscape.org/namespaces/inkscape"
 inkscape:version="0.91 r13725"
 sodipodi:docname="integration.svg">
 <defs>
  <style type="text/css">
   <![CDATA[
    .fil1 {fill:none}
    .fil0 {fill:#FED15D;fill-rule:nonzero}
   ]]>
  </style>
 </defs>
 <g id="Camada_x0020_1">
  <metadata id="CorelCorpID_0Corel-Layer"/>
  <g id="_2407172825248">
   <sodipodi:namedview id="base" pagecolor="#ffffff" bordercolor="#666666" borderopacity="1.0" inkscape:pageopacity="0.0" inkscape:pageshadow="2" inkscape:zoom="1.5998291" inkscape:cx="126.15261" inkscape:cy="212.41032" inkscape:document-units="px" inkscape:current-layer="layer1" showgrid="false" units="px" showguides="true" inkscape:guide-bbox="true" inkscape:window-width="1920" inkscape:window-height="1056" inkscape:window-x="1920" inkscape:window-y="24" inkscape:window-maximized="1">
    <sodipodi:guide position="200.71429,121.42857" orientation="1,0" id="guide23298"/>
   </sodipodi:namedview>
   <g id="layer1" inkscape:label="Capa 1" inkscape:groupmode="layer">
    <path id="path4254" class="fil0" d="M79.25 105.65c-0.46,-0 -6.38,-0.01 -13.01,-0.02 -3.5,-0.01 -6.76,-0.07 -9.33,-0.17 -1.28,-0.05 -2.39,-0.11 -3.28,-0.18 -0.9,-0.07 -1.44,-0.09 -2.27,-0.3 -1,-0.26 -1.86,-0.21 -3.13,-1.45 -0.63,-0.62 -1.04,-1.58 -1.14,-2.22 -0.11,-0.64 -0.07,-1.04 -0.06,-1.41 0.05,-1.32 0.42,-2.07 0.85,-3 0.43,-0.92 0.99,-1.88 1.65,-2.85 0.9,-1.31 1.27,-2.16 1.38,-2.67 0.11,-0.5 0.1,-0.77 -0.18,-1.56 -0.26,-0.72 -0.59,-1.12 -1.45,-1.57 -0.86,-0.44 -2.3,-0.81 -4.32,-0.85 -2.74,-0.06 -4.63,0.31 -5.67,0.8 -1.04,0.49 -1.35,0.88 -1.64,1.85 -0.36,1.19 -0.33,1.73 -0.13,2.33 0.2,0.61 0.75,1.48 2.04,2.74 1.24,1.21 1.94,2.99 2.07,4.67 0.07,0.85 0.38,1.79 -0.51,3.32 -0.45,0.76 -1.2,1.32 -1.73,1.57 -0.53,0.26 -0.91,0.35 -1.28,0.44 -1.15,0.3 -1.35,0.2 -2.22,0.24 -0.87,0.04 -1.98,0.08 -3.26,0.11 -2.56,0.06 -5.8,0.09 -9.01,0.1 -3.21,0.01 -6.39,-0.01 -8.83,-0.06 -1.22,-0.02 -2.25,-0.05 -3.04,-0.1 -0.4,-0.02 -0.73,-0.04 -1.04,-0.08 -0.16,-0.02 -0.3,-0.03 -0.51,-0.07 -0.21,-0.04 -0.28,0.19 -1.34,-0.55 -0.81,-0.57 -0.93,-0.98 -1.05,-1.24 -0.12,-0.25 -0.17,-0.41 -0.2,-0.53 -0.07,-0.25 -0.1,-0.4 -0.12,-0.55 -0.05,-0.3 -0.08,-0.58 -0.11,-0.91 -0.06,-0.66 -0.12,-1.51 -0.17,-2.52 -0.11,-2.03 -0.21,-4.73 -0.29,-7.59 -0.16,-5.72 -0.24,-11.98 -0.09,-15.05 0.05,-1.01 0.16,-1.98 0.31,-2.83 0.08,-0.43 0.16,-0.82 0.29,-1.23 0.13,-0.41 0.1,-0.77 0.85,-1.63 0.73,-0.84 1.89,-1.38 2.88,-1.48 0.99,-0.1 1.83,0.09 2.6,0.36 1.53,0.54 2.88,1.47 4.38,2.72 2.54,2.13 3.14,2.25 4.89,1.79 1.93,-0.51 3.67,-2.47 4.46,-5.21 0.79,-2.74 0.48,-5.93 -1.01,-8.12 -0.77,-1.13 -2.21,-2.29 -3.57,-2.91 -1.21,-0.55 -2.16,-0.53 -2.38,-0.52 -0.18,0.12 -0.46,0.31 -0.69,0.53 -0.53,0.5 -1.18,1.19 -1.76,1.87 -1.88,2.21 -3.23,4.01 -6.23,4.17 -1.5,0.08 -3.2,-0.89 -3.96,-2 -0.76,-1.1 -1.03,-2.2 -1.21,-3.4 -0.13,-0.85 -0.09,-1.26 -0.09,-2.14 -0,-0.88 0.01,-1.99 0.04,-3.27 0.05,-2.55 0.16,-5.74 0.29,-8.9 0.13,-3.15 0.28,-6.26 0.42,-8.64 0.07,-1.19 0.14,-2.19 0.21,-2.96 0.03,-0.38 0.07,-0.7 0.11,-1 0.02,-0.15 0.04,-0.29 0.09,-0.49 0.04,-0.2 -0.19,-0.24 0.56,-1.28 0.68,-0.94 1.11,-0.97 1.36,-1.08 0.25,-0.11 0.39,-0.14 0.51,-0.17 0.24,-0.06 0.37,-0.07 0.5,-0.09 0.27,-0.04 0.51,-0.05 0.8,-0.07 0.58,-0.04 1.33,-0.07 2.24,-0.09 1.81,-0.05 4.24,-0.08 6.89,-0.07 6.4,0.02 10.23,-0.04 12.55,-0.24 2.31,-0.2 2.84,-0.42 3.6,-0.86 1.36,-0.79 1.4,-1.08 1.43,-1.52 0.03,-0.44 -0.31,-1.75 -1.79,-3.7 -0.9,-1.18 -1.54,-2.07 -2.04,-3.15 -0.49,-1.08 -0.68,-2.23 -0.75,-3.28 0.28,-3.45 1.1,-6.02 3.8,-7.78 1,-0.65 1.69,-0.81 2.63,-1.09 0.95,-0.28 2,-0.53 3.05,-0.71l0 0c6.14,-1.03 12.01,0.42 14.69,5.08 0.85,1.48 1.26,3.42 0.9,5.2 -0.37,1.78 -1.26,3.29 -2.47,4.93 -1.87,2.54 -2.31,5.07 -2.37,4.74l0 0c0.05,0.3 0.07,0.44 0.72,0.87 0.64,0.43 1.93,0.95 3.81,1.28 -0.47,-0.08 0.25,0.02 0.91,0.05 0.66,0.03 1.56,0.06 2.62,0.09 2.11,0.06 4.83,0.12 7.54,0.16 2.71,0.04 5.43,0.07 7.52,0.08 1.05,0 1.94,0 2.59,-0.01 0.65,-0.01 1.43,-0.11 0.83,-0.01 1.24,-0.2 2.51,0.57 2.95,1.09 0.44,0.51 0.54,0.84 0.63,1.09 0.18,0.5 0.21,0.79 0.26,1.11 0.09,0.65 0.13,1.37 0.17,2.34 0.07,1.94 0.09,4.81 0.07,8.84 -0.04,6.79 0.22,11.06 0.77,13.28 0.55,2.22 0.61,2.08 1.64,2.41 0.59,0.19 0.5,0.2 1.06,0.01 0.56,-0.19 1.73,-0.83 3.54,-2.09 1.81,-1.27 3.41,-2.21 5.37,-2.49 1.95,-0.28 3.89,0.37 5.45,1.3 3.09,1.84 4.4,5.43 4.86,9.91 0.46,4.53 -0.3,8.81 -2.84,11.89 -1.24,1.5 -3.28,2.64 -5.32,2.97 -1.09,0.18 -2.55,0.32 -3.93,-0.19 -1.38,-0.5 -2.35,-1.23 -4.1,-2.42 -2,-1.36 -3.28,-1.9 -3.72,-1.98 -0.44,-0.08 -0.25,-0.16 -0.99,0.4 -0.88,0.68 -1.06,0.74 -1.47,3.26 -0.41,2.51 -0.57,7.07 -0.61,14.75 -0.01,2.28 -0.06,4.38 -0.14,5.98 -0.04,0.8 -0.08,1.47 -0.14,2.02 -0.03,0.28 -0.06,0.52 -0.11,0.8 -0.03,0.14 -0.06,0.29 -0.14,0.54 -0.08,0.25 0.04,0.59 -0.96,1.47 -0.93,0.81 -1.37,0.79 -1.87,0.91 -0.5,0.12 -0.98,0.18 -1.54,0.18l0 0zm-0.07 -6.28c0.01,0 0.1,0 0.1,0 -0.03,-0 0.06,-0.01 0.04,-0.01 -0.01,0 -0.03,-0.03 -0.14,0.01l0 0zm-1.44 -0c0.07,-1.46 0.12,-3.47 0.13,-5.65 0.04,-7.74 0.15,-12.37 0.69,-15.72 0.54,-3.34 1.98,-5.81 3.85,-7.24 1.54,-1.18 3.78,-1.97 5.9,-1.6 2.12,0.37 3.89,1.44 6.15,2.97 2.63,1.9 3.79,2.31 4.97,0.84 0.97,-1.18 1.78,-3.94 1.44,-7.26 -0.38,-3.68 -1.12,-4.73 -1.83,-5.15 -0.92,-0.55 -1.03,-0.52 -1.33,-0.47 -0.3,0.04 -1.17,0.38 -2.67,1.43 -1.98,1.38 -3.46,2.33 -5.12,2.89 -1.65,0.56 -3.53,0.5 -5,0.03 -2.71,-0.87 -4.99,-3.5 -5.82,-6.9 -0.83,-3.4 -0.99,-7.88 -0.95,-14.82 0.02,-3.79 -0,-6.38 -0.06,-8.13 -0.4,0 -0.71,0.01 -1.17,0 -2.14,-0.01 -4.87,-0.03 -7.6,-0.08 -2.74,-0.04 -5.47,-0.1 -7.63,-0.16 -1.08,-0.03 -2,-0.06 -2.72,-0.09 -0.72,-0.03 -0.94,0.01 -1.74,-0.14 -2.42,-0.44 -4.48,-1.1 -6.2,-2.25 -1.72,-1.15 -3.07,-2.99 -3.42,-5.07 -0.58,-3.53 1.16,-6.29 3.51,-9.48 0.94,-1.28 1.3,-2.13 1.37,-2.48 0.07,-0.35 0.1,-0.3 -0.19,-0.8 -0.93,-1.61 -3.6,-2.8 -8.21,-2.02l-0 0c-0.76,0.13 -1.63,0.33 -2.31,0.53 -0.68,0.2 -1.34,0.56 -0.99,0.33 -1.29,1.02 -1.35,1.88 -0.76,3.2 0.13,0.28 0.5,0.87 1.32,1.95 1.94,2.55 3.22,5.06 3.06,7.86 -0.16,2.8 -2.11,5.18 -4.54,6.6 -1.53,0.89 -3.45,1.45 -6.22,1.69 -2.77,0.24 -6.66,0.28 -13.1,0.26 -2.6,-0.01 -4.98,0.02 -6.7,0.07 -0.08,0 -0.11,0.01 -0.19,0.01 -0.03,0.45 -0.06,0.77 -0.09,1.32 -0.14,2.31 -0.29,5.39 -0.41,8.52 -0.13,3.12 -0.23,6.29 -0.28,8.78 -0.02,1.15 -0.03,2.1 -0.04,2.87 0.15,-0.15 0.28,-0.26 0.44,-0.44 0.73,-0.86 1.51,-1.67 2.22,-2.35 0.72,-0.68 0.94,-1.14 2.35,-1.75 2.67,-1.15 5.29,-0.5 7.65,0.58 2.36,1.08 4.58,2.78 6.15,5.09 2.76,4.06 3.11,9.07 1.85,13.4 -1.25,4.33 -4.26,8.31 -8.9,9.53 -3.53,0.93 -7.25,-0.3 -10.52,-3.04 -0.37,-0.31 -0.67,-0.5 -0.98,-0.72 -0.01,0.11 -0.03,0.2 -0.03,0.31 -0.12,2.5 -0.06,8.93 0.1,14.57 0.08,2.82 0.18,5.48 0.28,7.42 0.01,0.24 0.03,0.35 0.04,0.57 0.48,0.01 0.82,0.03 1.41,0.04 2.36,0.05 5.51,0.07 8.69,0.06 3.18,-0.01 6.39,-0.04 8.88,-0.1 0.89,-0.02 1.54,-0.05 2.21,-0.07 -1.43,-1.47 -2.55,-2.97 -3.14,-4.76 -0.66,-1.99 -0.52,-4.12 0.07,-6.1 0.74,-2.49 2.6,-4.61 4.99,-5.74 2.39,-1.12 5.18,-1.47 8.48,-1.4 2.67,0.06 5.04,0.5 7.08,1.56 2.04,1.06 3.69,2.85 4.46,5 0.56,1.56 0.78,3.35 0.41,5.05 -0.38,1.71 -1.21,3.22 -2.33,4.86 -0.35,0.5 -0.58,0.95 -0.82,1.4 0.13,0.01 0.07,0.01 0.21,0.02 0.77,0.06 1.81,0.12 3.04,0.16 2.46,0.1 5.66,0.16 9.09,0.16 5.85,0.01 9.93,0.02 11.49,0.02l0 0zm-66.1 -0.25c-0.16,-0.04 -0.21,-0.02 -0.25,-0.02 0.04,0 0.17,0.01 0.25,0.02zm1.76 -24.91c0.06,-0.12 0.04,-0.15 0.03,-0.12 -0,0.01 -0.02,0.09 -0.03,0.12zm0.43 -41.58c0.05,-0.16 0.03,-0.21 0.03,-0.25 -0.01,0.04 -0.02,0.17 -0.03,0.25z" inkscape:connector-curvature="0" sodipodi:nodetypes="ccscssssssssssssssssccssccccssscssssssscssssssscssssscssssscssccssssscssccsccsssccsccsscccsssssssssssssssssssssssccccccccccssssccssssssssccssscscccscccccsssssccssscssssssssccsccccccssssssssccssccccccccccc"/>
   </g>
  </g>
  <rect class="fil1" width="113.81" height="113.81"/>
 </g>
</svg>
