<?xml version="1.0" encoding="UTF-8"?>
<!DOCTYPE svg PUBLIC "-//W3C//DTD SVG 1.1//EN" "http://www.w3.org/Graphics/SVG/1.1/DTD/svg11.dtd">
<!-- Creator: CorelDRAW -->
<svg xmlns="http://www.w3.org/2000/svg" xml:space="preserve" width="25.43mm" height="25.43mm" version="1.1" style="shape-rendering:geometricPrecision; text-rendering:geometricPrecision; image-rendering:optimizeQuality; fill-rule:evenodd; clip-rule:evenodd"
viewBox="0 0 143.03 143.03"
 xmlns:xlink="http://www.w3.org/1999/xlink"
 xmlns:xodm="http://www.corel.com/coreldraw/odm/2003">
 <defs>
  <style type="text/css">
   <![CDATA[
    .fil1 {fill:none}
    .fil0 {fill:#FED15D;fill-rule:nonzero}
   ]]>
  </style>
 </defs>
 <g id="Camada_x0020_1">
  <metadata id="CorelCorpID_0Corel-Layer"/>
  <path class="fil0" d="M74.9 17.63c2.42,0 4.38,1.96 4.38,4.38 0,2.42 -1.96,4.38 -4.38,4.38l-38.44 0c-2.54,0 -5.01,0.5 -7.28,1.44 -2.25,0.93 -4.35,2.33 -6.14,4.12 -1.8,1.8 -3.19,3.89 -4.12,6.14 -0.94,2.27 -1.44,4.74 -1.44,7.28l0 58.41c0,2.54 0.5,5.01 1.44,7.28 0.93,2.25 2.33,4.34 4.12,6.14 1.8,1.8 3.89,3.19 6.14,4.12 2.27,0.94 4.74,1.44 7.28,1.44l70.1 0c2.54,0 5.01,-0.5 7.28,-1.44 2.25,-0.93 4.34,-2.33 6.14,-4.12 1.8,-1.8 3.19,-3.89 4.12,-6.14 0.94,-2.27 1.44,-4.74 1.44,-7.28l0 -35.46c0,-2.42 1.96,-4.38 4.38,-4.38 2.42,0 4.38,1.96 4.38,4.38l0 35.46c0,3.65 -0.73,7.25 -2.12,10.6 -1.39,3.36 -3.42,6.43 -6.01,9.02 -2.58,2.58 -5.66,4.61 -9.02,6.01 -3.35,1.39 -6.95,2.12 -10.6,2.12l-70.1 0c-3.65,0 -7.25,-0.73 -10.6,-2.12 -3.36,-1.39 -6.43,-3.42 -9.02,-6.01 -2.58,-2.58 -4.61,-5.66 -6.01,-9.02 -1.39,-3.35 -2.12,-6.95 -2.12,-10.6l0 -58.41c0,-3.65 0.73,-7.25 2.12,-10.6 1.39,-3.36 3.42,-6.43 6.01,-9.02 2.58,-2.58 5.66,-4.61 9.02,-6.01 3.35,-1.39 6.95,-2.12 10.6,-2.12l38.44 0zm28.62 2.63c-2.42,0 -4.38,-1.96 -4.38,-4.38 0,-2.42 1.96,-4.38 4.38,-4.38l26.4 0c2.42,0 4.38,1.96 4.38,4.38l0 26.46c0,2.42 -1.96,4.38 -4.38,4.38 -2.42,0 -4.38,-1.96 -4.38,-4.38l0 -15.89 -25.59 25.59c-1.71,1.71 -4.48,1.71 -6.2,0 -1.71,-1.71 -1.71,-4.48 0,-6.19l25.58 -25.58 -15.82 0zm-26.93 77.69l0 6.43c0,1.04 -0.41,2.03 -1.15,2.77 -0.73,0.73 -1.73,1.15 -2.77,1.15 -1.04,0 -2.03,-0.41 -2.77,-1.15 -0.73,-0.73 -1.15,-1.73 -1.15,-2.77l0 -6.6c-2.59,-0.43 -5.07,-1.37 -7.29,-2.78 -2.22,-1.4 -4.13,-3.24 -5.62,-5.4 -0.6,-0.65 -0.93,-1.51 -0.93,-2.4 -0,-0.51 0.1,-1.01 0.3,-1.47 0.2,-0.47 0.49,-0.89 0.86,-1.24 0.37,-0.35 0.8,-0.62 1.27,-0.8 0.47,-0.18 0.98,-0.26 1.48,-0.23 0.5,-0 1,0.11 1.45,0.32 0.46,0.21 0.86,0.52 1.18,0.91 1.87,2.44 4.4,4.29 7.3,5.31l0 -14.84c-7.77,-3.1 -11.68,-7.59 -11.68,-13.49 0.12,-3.16 1.36,-6.17 3.5,-8.49 2.14,-2.32 5.04,-3.81 8.18,-4.18l0 -6.48c0,-1.04 0.41,-2.03 1.15,-2.77 0.73,-0.73 1.73,-1.15 2.77,-1.15 1.04,0 2.03,0.41 2.77,1.15 0.73,0.73 1.15,1.73 1.15,2.77l0 6.43c2.18,0.34 4.27,1.11 6.15,2.27 1.88,1.16 3.5,2.7 4.77,4.5 0.52,0.68 0.82,1.49 0.88,2.34 0.02,0.5 -0.07,1 -0.25,1.47 -0.18,0.47 -0.45,0.89 -0.8,1.25 -0.35,0.36 -0.77,0.65 -1.23,0.84 -0.46,0.19 -0.96,0.29 -1.46,0.29 -0.52,-0.01 -1.04,-0.12 -1.51,-0.35 -0.47,-0.22 -0.89,-0.54 -1.23,-0.94 -1.39,-1.74 -3.23,-3.07 -5.32,-3.86l0 13.14 1.46 0.58c7.42,2.86 12.03,7.07 12.03,13.79 -0.1,3.56 -1.55,6.96 -4.05,9.49 -2.5,2.54 -5.88,4.03 -9.44,4.18zm-7.83 -31.43l0 -9.46c-0.94,0.34 -1.75,0.97 -2.32,1.8 -0.57,0.83 -0.86,1.81 -0.83,2.81 0.05,0.99 0.37,1.95 0.92,2.78 0.56,0.82 1.33,1.48 2.23,1.89l0 0.18zm12.85 17.93c0,-2.86 -1.99,-4.56 -5.02,-5.84l0 11.68c1.43,-0.2 2.74,-0.93 3.67,-2.04 0.93,-1.11 1.41,-2.53 1.35,-3.98l0 0.17z"/>
  <rect class="fil1" width="143.03" height="143.03"/>
 </g>
</svg>
